<?xml version="1.0" encoding="utf-8"?>
<!-- Generator: Adobe Illustrator 19.0.0, SVG Export Plug-In . SVG Version: 6.00 Build 0)  -->
<svg version="1.1" id="logo-papuche" xmlns="http://www.w3.org/2000/svg" xmlns:xlink="http://www.w3.org/1999/xlink" x="0px"
	 y="0px" viewBox="0 0 641 136" style="enable-background:new 0 0 641 136;" xml:space="preserve">
<style type="text/css">
	.st0{fill:#FFDE2C;}
	.st1{fill:#FFFFFF;}
	.st2{fill:none;}
	.st3{fill:#E67975;}
</style>
<g>
	<path class="st0" d="M127.1,54.2c-6.8,0-13.6,0.2-20.4-0.2c-1.3-0.1-2.9-2.8-3.5-4.5C96.4,28.6,73.2,19,53.8,29.2
		c-8.7,4.6-14.6,11.6-17.1,21.1c-0.8,3-2.2,4-5.2,3.9c-6.1-0.2-12.3-0.1-18.4-0.1C15.2,31.8,43,11,70.2,11
		C97.3,11.1,125.1,31.8,127.1,54.2z"/>
	<path class="st1" d="M70.5,34.7C84.1,34.8,95.1,46,95.1,59.6c0,14.1-11.3,25.4-25.3,25.3c-13.9-0.1-24.9-11.3-24.9-25.2
		C45,45.6,56.2,34.7,70.5,34.7z M69.9,65.9c3.8-0.3,6.2-2.2,6.4-6.2c0.2-4-2-6.2-5.9-6.7c-3.6-0.4-7,2.8-6.8,6.4
		C63.8,63.3,66,65.5,69.9,65.9z"/>
	<path d="M76.4,111c-3,2.2-4.6,4.3-6.3,4.3c-1.4,0-4.1-2.5-4-3.6c0.2-1.7,2.2-4.2,3.8-4.5C71.3,106.9,73.2,109,76.4,111z"/>
	<path d="M69.9,65.9c-3.9-0.5-6.1-2.6-6.3-6.5c-0.2-3.6,3.3-6.8,6.8-6.4c3.8,0.4,6,2.7,5.9,6.7C76.2,63.8,73.7,65.6,69.9,65.9z"/>
	<path class="st0" d="M129.7,124.9c-40,0-79.2,0-118.7,0c-0.2-1.5-0.4-2.8-0.4-4.1c0-16.6,0.1-33.3-0.1-49.9c0-4.4,1-6.7,5.8-5.9
		c1.5,0.2,3,0.2,4.5,0c9.3-1.3,15.3,0.3,19,11c4.4,12.8,19.3,19.6,33.1,18.5c14.1-1.2,26-10.3,30-24c1.4-4.8,3.5-5.9,8-5.6
		c5.1,0.3,10.3-0.1,15.5,0.2c1.2,0.1,3.2,1.9,3.2,3C129.8,86.8,129.7,105.5,129.7,124.9z M76.4,111c-3.1-1.9-5-4.1-6.5-3.8
		c-1.6,0.3-3.6,2.8-3.8,4.5c-0.1,1.1,2.6,3.6,4,3.6C71.8,115.3,73.4,113.2,76.4,111z"/>
	<g>
		<path class="st2" d="M70.5,34.7c-14.3-0.1-25.5,10.8-25.6,25c-0.1,13.9,11,25.1,24.9,25.2c14,0.1,25.4-11.2,25.3-25.3
			C95.1,46,84.1,34.8,70.5,34.7z"/>
		<path class="st2" d="M126.3,65c-5.1-0.3-10.3,0.1-15.5-0.2c-4.4-0.3-6.6,0.8-8,5.6c-4,13.8-15.9,22.9-30,24
			c-13.8,1.1-28.7-5.7-33.1-18.5c-3.7-10.7-9.7-12.4-19-11c-1.5,0.2-3,0.2-4.5,0c-4.8-0.7-5.9,1.6-5.8,5.9c0.2,16.6,0,33.3,0.1,49.9
			c0,1.3,0.2,2.6,0.4,4.1c39.5,0,78.8,0,118.7,0c0-19.4,0.1-38.1-0.1-56.9C129.6,66.9,127.5,65.1,126.3,65z"/>
		<path class="st2" d="M31.5,54.2c3,0.1,4.4-1,5.2-3.9c2.6-9.5,8.5-16.6,17.1-21.1c19.3-10.2,42.5-0.6,49.4,20.3
			c0.6,1.8,2.2,4.4,3.5,4.5c6.8,0.5,13.6,0.2,20.4,0.2c-2.1-22.4-29.8-43.2-57-43.2c-27.1,0-55,20.8-57,43.2
			C19.3,54.2,25.4,54.1,31.5,54.2z"/>
		<path d="M139.7,69.1c0-5.9-0.8-12-2.3-17.8c-8.6-32.6-41.5-54.4-75.2-50C26.1,5.9,0.8,33.3,0.4,68.3c-0.2,18.2,0,36.3,0,54.5
			c0,0,0,0-0.1,0c0,4.4,0,8.7,0,13.1h139.6C139.9,113.6,139.9,91.3,139.7,69.1z M70.2,11c27.2,0,54.9,20.8,57,43.2
			c-6.8,0-13.6,0.2-20.4-0.2c-1.3-0.1-2.9-2.8-3.5-4.5C96.4,28.6,73.2,19,53.8,29.2c-8.7,4.6-14.6,11.6-17.1,21.1
			c-0.8,3-2.2,4-5.2,3.9c-6.1-0.2-12.3-0.1-18.4-0.1C15.2,31.8,43,11,70.2,11z M95.1,59.6c0,14.1-11.3,25.4-25.3,25.3
			c-13.9-0.1-24.9-11.3-24.9-25.2c0.1-14.1,11.2-25,25.6-25C84.1,34.8,95.1,46,95.1,59.6z M129.7,124.9c-40,0-79.2,0-118.7,0
			c-0.2-1.5-0.4-2.8-0.4-4.1c0-16.6,0.1-33.3-0.1-49.9c0-4.4,1-6.7,5.8-5.9c1.5,0.2,3,0.2,4.5,0c9.3-1.3,15.3,0.3,19,11
			c4.4,12.8,19.3,19.6,33.1,18.5c14.1-1.2,26-10.3,30-24c1.4-4.8,3.5-5.9,8-5.6c5.1,0.3,10.3-0.1,15.5,0.2c1.2,0.1,3.2,1.9,3.2,3
			C129.8,86.8,129.7,105.5,129.7,124.9z"/>
	</g>
	<g>
		<path class="st3" d="M194.1,78.6v25h-15.5V34.1h26.2c7.1,0,12.8,2.1,17.3,6.3c4.4,4.2,6.6,9.5,6.6,16c0,6.6-2.2,12-6.6,16.1
			c-4.4,4.1-10.2,6.2-17.3,6.2H194.1z M203.2,65.3c6.6,0,9.9-2.9,9.9-8.8c0-5.9-3.3-8.9-9.9-8.9h-9v17.7H203.2z"/>
		<path class="st3" d="M276.8,89.5h-26.9l-5,14.1h-16.3l26.2-69.5h17.9l25.9,69.5h-16.9L276.8,89.5z M255,75.4h16.9l-8.3-24
			L255,75.4z"/>
		<path class="st3" d="M324.6,78.6v25h-15.5V34.1h26.2c7.1,0,12.8,2.1,17.3,6.3c4.4,4.2,6.6,9.5,6.6,16c0,6.6-2.2,12-6.6,16.1
			c-4.4,4.1-10.2,6.2-17.3,6.2H324.6z M333.7,65.3c6.6,0,9.9-2.9,9.9-8.8c0-5.9-3.3-8.9-9.9-8.9h-9v17.7H333.7z"/>
		<path class="st3" d="M379,98.4c-5.4-4.8-8-11.5-8-19.9V34.1h15.5v43.1c0,8.4,4,12.6,12.1,12.6c8,0,12.1-4.2,12.1-12.6V34.1h15.5
			v44.4c0,8.4-2.7,15.1-8,19.9c-5,4.5-11.5,6.8-19.5,6.8C390.5,105.2,384,102.9,379,98.4z"/>
		<path class="st3" d="M449.1,95.2c-7.1-6.8-10.6-15.5-10.6-26.2c0-10.6,3.6-19.3,10.7-26.3c6.9-6.7,15.3-10.1,25.2-10.1
			c5,0,9.5,0.8,13.5,2.3c3.7,1.3,6.9,3.2,9.6,5.7c2.5,2.2,4.5,4.7,6.2,7.6c1.4,2.5,2.5,5.1,3,7.8l-14.6,4.6c-0.3-1.4-0.8-2.7-1.5-4
			c-0.8-1.6-1.9-3-3.2-4.2c-3.3-3.1-7.6-4.7-13-4.7c-5.2,0-9.7,1.7-13.4,5.2c-4.2,3.9-6.4,9.3-6.4,16.1c0,6.3,2,11.3,6.1,15.2
			c3.8,3.6,8.4,5.4,13.9,5.4c5.4,0,9.7-1.5,13.1-4.6c1.3-1.2,2.4-2.7,3.3-4.3c0.8-1.3,1.4-2.7,1.8-4.1l14.8,4.2
			c-0.7,2.7-1.7,5.3-3,7.8c-1.7,3-3.8,5.7-6.3,7.9c-2.8,2.6-6.1,4.6-9.8,6.1c-4.2,1.6-8.8,2.5-13.9,2.5
			C464.4,105.1,455.9,101.8,449.1,95.2z"/>
		<path class="st3" d="M563.4,103.6V76h-27.7v27.6h-15.5V34.1h15.5v27.3h27.7V34.1H579v69.5H563.4z"/>
		<path class="st3" d="M595.9,103.6V34.1h44v14.6h-28.5v13.2h25.9v13.6h-25.9v13.3h28.6v14.7H595.9z"/>
	</g>
</g>
</svg>
