<?xml version="1.0" encoding="utf-8"?>
<!-- Generator: Adobe Illustrator 18.0.0, SVG Export Plug-In . SVG Version: 6.00 Build 0)  -->
<!DOCTYPE svg PUBLIC "-//W3C//DTD SVG 1.1//EN" "http://www.w3.org/Graphics/SVG/1.1/DTD/svg11.dtd">
<svg version="1.1" id="Calque_1" xmlns="http://www.w3.org/2000/svg" xmlns:xlink="http://www.w3.org/1999/xlink" x="0px" y="0px"
	 viewBox="-228.5 260.2 57.8 55.7" enable-background="new -228.5 260.2 57.8 55.7" xml:space="preserve">
<g>
	<g>
		<path fill="#666666" d="M-205.6,299.3c-4.8,0-9.3-1.9-12.6-5.2c-3.4-3.4-5.2-7.9-5.2-12.6c0-4.8,1.9-9.3,5.2-12.6
			c3.4-3.4,7.9-5.2,12.6-5.2c4.8,0,9.3,1.9,12.6,5.2c7,7,7,18.3,0,25.3C-196.3,297.4-200.8,299.3-205.6,299.3z M-205.6,266.5
			c-4,0-7.7,1.5-10.5,4.4c-2.8,2.8-4.4,6.5-4.4,10.5s1.5,7.7,4.4,10.5c2.8,2.8,6.5,4.4,10.5,4.4c4,0,7.7-1.5,10.5-4.4
			c5.8-5.8,5.8-15.2,0-21C-197.9,268.1-201.6,266.5-205.6,266.5z"/>
	</g>
	<g>
		<path fill="#666666" d="M-176,312.5c-0.4,0-0.8-0.1-1.1-0.4l-18-18c-0.6-0.6-0.6-1.5,0-2.1s1.5-0.6,2.1,0l18,18
			c0.6,0.6,0.6,1.5,0,2.1C-175.2,312.3-175.6,312.5-176,312.5z"/>
	</g>
</g>
</svg>
