<?xml version="1.0" encoding="utf-8"?>
<!-- Generator: Adobe Illustrator 18.0.0, SVG Export Plug-In . SVG Version: 6.00 Build 0)  -->
<!DOCTYPE svg PUBLIC "-//W3C//DTD SVG 1.1//EN" "http://www.w3.org/Graphics/SVG/1.1/DTD/svg11.dtd">
<svg version="1.1" id="Layer_3" xmlns="http://www.w3.org/2000/svg" xmlns:xlink="http://www.w3.org/1999/xlink" x="0px" y="0px"
	 viewBox="0 0 1552 1114" enable-background="new 0 0 1552 1114" xml:space="preserve">
<path fill="#E67975" d="M1347.3,227.5c-40.4,17.9-83.7,30-129.2,35.4c46.4-27.8,82.1-71.9,98.9-124.4
	c-43.5,25.8-91.6,44.5-142.8,54.6c-41-43.7-99.5-71-164.2-71c-124.2,0-224.9,100.7-224.9,224.9c0,17.6,2,34.8,5.8,51.2
	c-186.9-9.4-352.7-98.9-463.5-235c-19.4,33.2-30.5,71.9-30.5,113.1c0,78,39.7,146.8,100,187.2c-36.8-1.2-71.5-11.3-101.9-28.1
	c0,0.9,0,1.9,0,2.8c0,109,77.5,199.9,180.4,220.5c-18.9,5.1-38.7,7.9-59.2,7.9c-14.5,0-28.6-1.4-42.3-4
	c28.6,89.3,111.7,154.4,210.1,156.2C507.1,879,410.1,915,304.7,915c-18.2,0-36-1.1-53.6-3.2c99.5,63.8,217.7,101.1,344.7,101.1
	c413.6,0,639.9-342.7,639.9-639.9c0-9.7-0.2-19.4-0.7-29.1C1279,312.2,1317.1,272.6,1347.3,227.5z"/>
</svg>
